<svg t="1699799650370" class="icon" viewBox="0 0 1024 1024" version="1.1" xmlns="http://www.w3.org/2000/svg" p-id="17176" width="200" height="200"><path d="M569.808206 21.292922a82.081137 82.081137 0 0 0-110.287073 0L13.578761 444.754325a41.145293 41.145293 0 0 0 55.085356 61.112862l7.098029-6.748945v441.962821a82.267315 82.267315 0 0 0 82.150954 82.383676H397.500654V775.731906a57.94784 57.94784 0 0 1 57.94784-57.994384h112.66084a57.94784 57.94784 0 0 1 57.94784 57.901295v247.80265h245.126344a82.267315 82.267315 0 0 0 82.313859-82.244043V504.517398c18.268696 16.52328 44.217227 15.266579 59.41399-1.6756a41.145293 41.145293 0 0 0-2.955573-58.087473L569.808206 21.316194z" fill="#cdcdcd" p-id="17177" data-spm-anchor-id="a313x.search_index.0.i7.3ddb3a81HRTyxl" class=""></path></svg>