<?xml version="1.0" standalone="no"?><!DOCTYPE svg PUBLIC "-//W3C//DTD SVG 1.1//EN" "http://www.w3.org/Graphics/SVG/1.1/DTD/svg11.dtd"><svg t="1699800316502" class="icon" viewBox="0 0 1024 1024" version="1.1" xmlns="http://www.w3.org/2000/svg" p-id="4963" xmlns:xlink="http://www.w3.org/1999/xlink" width="200" height="200"><path d="M908.49728 676.672c9.6 0 18.304 6.272 21.888 15.744l88.832 262.4c12.16 32.384-10.56 67.648-43.84 67.648H565.64928a24.256 24.256 0 0 1-23.68-24.768v-296.32c0-13.44 10.752-24.704 23.68-24.704z m-451.52-0.128a24.32 24.32 0 0 1 23.68 24.896v296.128a24.384 24.384 0 0 1-23.68 24.768H47.24928c-33.28 0-56.064-35.136-43.84-67.648l88.832-262.4a23.488 23.488 0 0 1 21.888-15.744z m0-334.72a24.32 24.32 0 0 1 23.68 24.768V587.52a24.384 24.384 0 0 1-23.68 24.768H156.88128c-16.512 0-27.968-17.6-21.824-33.856L202.32128 373.376a47.296 47.296 0 0 1 43.84-31.552z m115.712 0c7.872 0 15.232 4.224 19.584 11.008l49.408 76.8a45.44 45.44 0 0 0 80.64 0l48.32-76.608a23.232 23.232 0 0 1 19.712-11.2h2.176c9.6 0 18.368 6.336 21.952 15.808l73.28 220.608c6.208 16.256-5.248 33.92-21.888 33.92H565.64928a24.32 24.32 0 0 1-23.68-24.96V366.656c0-13.568 10.752-24.768 23.68-24.768zM681.16928 0.96c75.904-1.088 137.856 63.232 137.856 142.784 0 21.952-4.8 42.752-13.184 61.376h0.64L717.64928 366.72a38.848 38.848 0 0 1-68.864 0L568.01728 219.648a138.24 138.24 0 0 1-5.184-9.344l-2.816-5.12a153.856 153.856 0 0 1-12.288-48.256l-0.576-13.056c0-77.824 60.224-141.888 134.016-142.912z m1.92 78.08c-35.264 0-63.744 30.08-63.744 66.944 0 36.8 28.608 66.88 63.68 66.88 35.136 0 63.68-29.952 63.68-66.88 0-36.864-28.544-66.88-63.68-66.88z" fill="#cdcdcd" p-id="4964"></path></svg>