<?xml version="1.0" standalone="no"?><!DOCTYPE svg PUBLIC "-//W3C//DTD SVG 1.1//EN" "http://www.w3.org/Graphics/SVG/1.1/DTD/svg11.dtd"><svg t="1700536657000" class="icon" viewBox="0 0 1024 1024" version="1.1" xmlns="http://www.w3.org/2000/svg" p-id="5420" xmlns:xlink="http://www.w3.org/1999/xlink" width="200" height="200"><path d="M212.48902 956.390159 92.609723 956.390159c-14.111392 0-25.550932-11.438517-25.550932-25.550932l0-204.098421c0-14.112416 11.43954-25.551956 25.550932-25.551956l119.879298 0c14.111392 0 25.550932 11.43954 25.550932 25.551956l0 204.098421C238.040976 944.951643 226.600413 956.390159 212.48902 956.390159zM118.161678 905.287271l68.77641 0L186.938088 752.290715l-68.77641 0L118.161678 905.287271z" p-id="5421"></path><path d="M452.250686 956.390159 332.355015 956.390159c-14.111392 0-25.550932-11.438517-25.550932-25.550932L306.804083 540.189016c0-14.111392 11.43954-25.550932 25.550932-25.550932l119.895671 0c14.112416 0 25.550932 11.43954 25.550932 25.550932l0 390.650211C477.801619 944.951643 466.363102 956.390159 452.250686 956.390159zM357.906971 905.287271l68.790736 0L426.697707 565.739948l-68.790736 0L357.906971 905.287271z" p-id="5422"></path><path d="M692.023608 956.390159 572.13203 956.390159c-14.111392 0-25.550932-11.438517-25.550932-25.550932L546.581098 354.933755c0-14.112416 11.43954-25.550932 25.550932-25.550932l119.891578 0c14.112416 0 25.552979 11.43954 25.552979 25.550932l0 575.905472C717.575564 944.951643 706.136024 956.390159 692.023608 956.390159zM597.68194 905.287271l68.790736 0 0-524.802584-68.790736 0L597.68194 905.287271z" p-id="5423"></path><path d="M931.78425 956.390159l-119.890554 0c-14.111392 0-25.551956-11.438517-25.551956-25.550932L786.34174 93.730755c0-14.112416 11.440563-25.551956 25.551956-25.551956l119.890554 0c14.111392 0 25.550932 11.43954 25.550932 25.551956l0 837.107449C957.335183 944.951643 945.896666 956.390159 931.78425 956.390159zM837.445652 905.287271l68.787666 0L906.233318 119.281687l-68.787666 0L837.445652 905.287271z" p-id="5424"></path></svg>